<mxfile host="app.diagrams.net" modified="2024-04-23T12:55:54.774Z" agent="Mozilla/5.0 (Windows NT 10.0; Win64; x64) AppleWebKit/537.36 (KHTML, like Gecko) Chrome/123.0.0.0 Safari/537.36 Edg/123.0.0.0" etag="dRpyUCuxiQmlrgUpNb_t" version="24.2.7" type="device">
  <diagram name="第 1 页" id="qm4ddd9qRuESemj-PKuU">
    <mxGraphModel dx="1607" dy="868" grid="1" gridSize="10" guides="1" tooltips="1" connect="1" arrows="1" fold="1" page="1" pageScale="1" pageWidth="827" pageHeight="1169" math="0" shadow="0">
      <root>
        <mxCell id="0" />
        <mxCell id="1" parent="0" />
        <mxCell id="F8cBAUzVvNkROAD9gVgR-21" value="Advertisements" style="shape=table;startSize=30;container=1;collapsible=1;childLayout=tableLayout;fixedRows=1;rowLines=0;fontStyle=1;align=center;resizeLast=1;html=1;" parent="1" vertex="1">
          <mxGeometry x="80" y="90" width="180" height="210" as="geometry" />
        </mxCell>
        <mxCell id="F8cBAUzVvNkROAD9gVgR-22" value="" style="shape=tableRow;horizontal=0;startSize=0;swimlaneHead=0;swimlaneBody=0;fillColor=none;collapsible=0;dropTarget=0;points=[[0,0.5],[1,0.5]];portConstraint=eastwest;top=0;left=0;right=0;bottom=1;" parent="F8cBAUzVvNkROAD9gVgR-21" vertex="1">
          <mxGeometry y="30" width="180" height="30" as="geometry" />
        </mxCell>
        <mxCell id="F8cBAUzVvNkROAD9gVgR-23" value="PK" style="shape=partialRectangle;connectable=0;fillColor=none;top=0;left=0;bottom=0;right=0;fontStyle=1;overflow=hidden;whiteSpace=wrap;html=1;" parent="F8cBAUzVvNkROAD9gVgR-22" vertex="1">
          <mxGeometry width="30" height="30" as="geometry">
            <mxRectangle width="30" height="30" as="alternateBounds" />
          </mxGeometry>
        </mxCell>
        <mxCell id="F8cBAUzVvNkROAD9gVgR-24" value="AdID" style="shape=partialRectangle;connectable=0;fillColor=none;top=0;left=0;bottom=0;right=0;align=left;spacingLeft=6;fontStyle=5;overflow=hidden;whiteSpace=wrap;html=1;" parent="F8cBAUzVvNkROAD9gVgR-22" vertex="1">
          <mxGeometry x="30" width="150" height="30" as="geometry">
            <mxRectangle width="150" height="30" as="alternateBounds" />
          </mxGeometry>
        </mxCell>
        <mxCell id="F8cBAUzVvNkROAD9gVgR-25" value="" style="shape=tableRow;horizontal=0;startSize=0;swimlaneHead=0;swimlaneBody=0;fillColor=none;collapsible=0;dropTarget=0;points=[[0,0.5],[1,0.5]];portConstraint=eastwest;top=0;left=0;right=0;bottom=0;" parent="F8cBAUzVvNkROAD9gVgR-21" vertex="1">
          <mxGeometry y="60" width="180" height="30" as="geometry" />
        </mxCell>
        <mxCell id="F8cBAUzVvNkROAD9gVgR-26" value="" style="shape=partialRectangle;connectable=0;fillColor=none;top=0;left=0;bottom=0;right=0;editable=1;overflow=hidden;whiteSpace=wrap;html=1;" parent="F8cBAUzVvNkROAD9gVgR-25" vertex="1">
          <mxGeometry width="30" height="30" as="geometry">
            <mxRectangle width="30" height="30" as="alternateBounds" />
          </mxGeometry>
        </mxCell>
        <mxCell id="F8cBAUzVvNkROAD9gVgR-27" value="AdContent" style="shape=partialRectangle;connectable=0;fillColor=none;top=0;left=0;bottom=0;right=0;align=left;spacingLeft=6;overflow=hidden;whiteSpace=wrap;html=1;" parent="F8cBAUzVvNkROAD9gVgR-25" vertex="1">
          <mxGeometry x="30" width="150" height="30" as="geometry">
            <mxRectangle width="150" height="30" as="alternateBounds" />
          </mxGeometry>
        </mxCell>
        <mxCell id="F8cBAUzVvNkROAD9gVgR-28" value="" style="shape=tableRow;horizontal=0;startSize=0;swimlaneHead=0;swimlaneBody=0;fillColor=none;collapsible=0;dropTarget=0;points=[[0,0.5],[1,0.5]];portConstraint=eastwest;top=0;left=0;right=0;bottom=0;" parent="F8cBAUzVvNkROAD9gVgR-21" vertex="1">
          <mxGeometry y="90" width="180" height="30" as="geometry" />
        </mxCell>
        <mxCell id="F8cBAUzVvNkROAD9gVgR-29" value="" style="shape=partialRectangle;connectable=0;fillColor=none;top=0;left=0;bottom=0;right=0;editable=1;overflow=hidden;whiteSpace=wrap;html=1;" parent="F8cBAUzVvNkROAD9gVgR-28" vertex="1">
          <mxGeometry width="30" height="30" as="geometry">
            <mxRectangle width="30" height="30" as="alternateBounds" />
          </mxGeometry>
        </mxCell>
        <mxCell id="F8cBAUzVvNkROAD9gVgR-30" value="AdURL" style="shape=partialRectangle;connectable=0;fillColor=none;top=0;left=0;bottom=0;right=0;align=left;spacingLeft=6;overflow=hidden;whiteSpace=wrap;html=1;" parent="F8cBAUzVvNkROAD9gVgR-28" vertex="1">
          <mxGeometry x="30" width="150" height="30" as="geometry">
            <mxRectangle width="150" height="30" as="alternateBounds" />
          </mxGeometry>
        </mxCell>
        <mxCell id="F8cBAUzVvNkROAD9gVgR-31" value="" style="shape=tableRow;horizontal=0;startSize=0;swimlaneHead=0;swimlaneBody=0;fillColor=none;collapsible=0;dropTarget=0;points=[[0,0.5],[1,0.5]];portConstraint=eastwest;top=0;left=0;right=0;bottom=0;" parent="F8cBAUzVvNkROAD9gVgR-21" vertex="1">
          <mxGeometry y="120" width="180" height="30" as="geometry" />
        </mxCell>
        <mxCell id="F8cBAUzVvNkROAD9gVgR-32" value="" style="shape=partialRectangle;connectable=0;fillColor=none;top=0;left=0;bottom=0;right=0;editable=1;overflow=hidden;whiteSpace=wrap;html=1;" parent="F8cBAUzVvNkROAD9gVgR-31" vertex="1">
          <mxGeometry width="30" height="30" as="geometry">
            <mxRectangle width="30" height="30" as="alternateBounds" />
          </mxGeometry>
        </mxCell>
        <mxCell id="F8cBAUzVvNkROAD9gVgR-33" value="AdType" style="shape=partialRectangle;connectable=0;fillColor=none;top=0;left=0;bottom=0;right=0;align=left;spacingLeft=6;overflow=hidden;whiteSpace=wrap;html=1;" parent="F8cBAUzVvNkROAD9gVgR-31" vertex="1">
          <mxGeometry x="30" width="150" height="30" as="geometry">
            <mxRectangle width="150" height="30" as="alternateBounds" />
          </mxGeometry>
        </mxCell>
        <mxCell id="F8cBAUzVvNkROAD9gVgR-34" style="shape=tableRow;horizontal=0;startSize=0;swimlaneHead=0;swimlaneBody=0;fillColor=none;collapsible=0;dropTarget=0;points=[[0,0.5],[1,0.5]];portConstraint=eastwest;top=0;left=0;right=0;bottom=0;" parent="F8cBAUzVvNkROAD9gVgR-21" vertex="1">
          <mxGeometry y="150" width="180" height="30" as="geometry" />
        </mxCell>
        <mxCell id="F8cBAUzVvNkROAD9gVgR-35" style="shape=partialRectangle;connectable=0;fillColor=none;top=0;left=0;bottom=0;right=0;editable=1;overflow=hidden;whiteSpace=wrap;html=1;" parent="F8cBAUzVvNkROAD9gVgR-34" vertex="1">
          <mxGeometry width="30" height="30" as="geometry">
            <mxRectangle width="30" height="30" as="alternateBounds" />
          </mxGeometry>
        </mxCell>
        <mxCell id="F8cBAUzVvNkROAD9gVgR-36" value="AdStartDate" style="shape=partialRectangle;connectable=0;fillColor=none;top=0;left=0;bottom=0;right=0;align=left;spacingLeft=6;overflow=hidden;whiteSpace=wrap;html=1;" parent="F8cBAUzVvNkROAD9gVgR-34" vertex="1">
          <mxGeometry x="30" width="150" height="30" as="geometry">
            <mxRectangle width="150" height="30" as="alternateBounds" />
          </mxGeometry>
        </mxCell>
        <mxCell id="F8cBAUzVvNkROAD9gVgR-81" style="shape=tableRow;horizontal=0;startSize=0;swimlaneHead=0;swimlaneBody=0;fillColor=none;collapsible=0;dropTarget=0;points=[[0,0.5],[1,0.5]];portConstraint=eastwest;top=0;left=0;right=0;bottom=0;" parent="F8cBAUzVvNkROAD9gVgR-21" vertex="1">
          <mxGeometry y="180" width="180" height="30" as="geometry" />
        </mxCell>
        <mxCell id="F8cBAUzVvNkROAD9gVgR-82" style="shape=partialRectangle;connectable=0;fillColor=none;top=0;left=0;bottom=0;right=0;editable=1;overflow=hidden;whiteSpace=wrap;html=1;" parent="F8cBAUzVvNkROAD9gVgR-81" vertex="1">
          <mxGeometry width="30" height="30" as="geometry">
            <mxRectangle width="30" height="30" as="alternateBounds" />
          </mxGeometry>
        </mxCell>
        <mxCell id="F8cBAUzVvNkROAD9gVgR-83" value="AdEndDate" style="shape=partialRectangle;connectable=0;fillColor=none;top=0;left=0;bottom=0;right=0;align=left;spacingLeft=6;overflow=hidden;whiteSpace=wrap;html=1;" parent="F8cBAUzVvNkROAD9gVgR-81" vertex="1">
          <mxGeometry x="30" width="150" height="30" as="geometry">
            <mxRectangle width="150" height="30" as="alternateBounds" />
          </mxGeometry>
        </mxCell>
        <mxCell id="F8cBAUzVvNkROAD9gVgR-84" value="&lt;strong style=&quot;box-sizing: border-box; color: rgb(51, 51, 51); font-family: &amp;quot;Open Sans&amp;quot;, &amp;quot;Clear Sans&amp;quot;, &amp;quot;Helvetica Neue&amp;quot;, Helvetica, Arial, &amp;quot;Segoe UI Emoji&amp;quot;, sans-serif; orphans: 4; text-align: left; background-color: rgb(255, 255, 255);&quot;&gt;&lt;font style=&quot;font-size: 12px;&quot;&gt;ClickStatistics&lt;/font&gt;&lt;/strong&gt;" style="shape=table;startSize=30;container=1;collapsible=1;childLayout=tableLayout;fixedRows=1;rowLines=0;fontStyle=1;align=center;resizeLast=1;html=1;" parent="1" vertex="1">
          <mxGeometry x="368.97" y="90" width="180" height="180" as="geometry">
            <mxRectangle x="368.97" y="90" width="120" height="30" as="alternateBounds" />
          </mxGeometry>
        </mxCell>
        <mxCell id="F8cBAUzVvNkROAD9gVgR-85" value="" style="shape=tableRow;horizontal=0;startSize=0;swimlaneHead=0;swimlaneBody=0;fillColor=none;collapsible=0;dropTarget=0;points=[[0,0.5],[1,0.5]];portConstraint=eastwest;top=0;left=0;right=0;bottom=1;" parent="F8cBAUzVvNkROAD9gVgR-84" vertex="1">
          <mxGeometry y="30" width="180" height="30" as="geometry" />
        </mxCell>
        <mxCell id="F8cBAUzVvNkROAD9gVgR-86" value="PK" style="shape=partialRectangle;connectable=0;fillColor=none;top=0;left=0;bottom=0;right=0;fontStyle=1;overflow=hidden;whiteSpace=wrap;html=1;" parent="F8cBAUzVvNkROAD9gVgR-85" vertex="1">
          <mxGeometry width="36" height="30" as="geometry">
            <mxRectangle width="36" height="30" as="alternateBounds" />
          </mxGeometry>
        </mxCell>
        <mxCell id="F8cBAUzVvNkROAD9gVgR-87" value="ClickID" style="shape=partialRectangle;connectable=0;fillColor=none;top=0;left=0;bottom=0;right=0;align=left;spacingLeft=6;fontStyle=5;overflow=hidden;whiteSpace=wrap;html=1;" parent="F8cBAUzVvNkROAD9gVgR-85" vertex="1">
          <mxGeometry x="36" width="144" height="30" as="geometry">
            <mxRectangle width="144" height="30" as="alternateBounds" />
          </mxGeometry>
        </mxCell>
        <mxCell id="F8cBAUzVvNkROAD9gVgR-88" value="" style="shape=tableRow;horizontal=0;startSize=0;swimlaneHead=0;swimlaneBody=0;fillColor=none;collapsible=0;dropTarget=0;points=[[0,0.5],[1,0.5]];portConstraint=eastwest;top=0;left=0;right=0;bottom=0;" parent="F8cBAUzVvNkROAD9gVgR-84" vertex="1">
          <mxGeometry y="60" width="180" height="30" as="geometry" />
        </mxCell>
        <mxCell id="F8cBAUzVvNkROAD9gVgR-89" value="FK1" style="shape=partialRectangle;connectable=0;fillColor=none;top=0;left=0;bottom=0;right=0;editable=1;overflow=hidden;whiteSpace=wrap;html=1;" parent="F8cBAUzVvNkROAD9gVgR-88" vertex="1">
          <mxGeometry width="36" height="30" as="geometry">
            <mxRectangle width="36" height="30" as="alternateBounds" />
          </mxGeometry>
        </mxCell>
        <mxCell id="F8cBAUzVvNkROAD9gVgR-90" value="AdID" style="shape=partialRectangle;connectable=0;fillColor=none;top=0;left=0;bottom=0;right=0;align=left;spacingLeft=6;overflow=hidden;whiteSpace=wrap;html=1;" parent="F8cBAUzVvNkROAD9gVgR-88" vertex="1">
          <mxGeometry x="36" width="144" height="30" as="geometry">
            <mxRectangle width="144" height="30" as="alternateBounds" />
          </mxGeometry>
        </mxCell>
        <mxCell id="F8cBAUzVvNkROAD9gVgR-91" value="" style="shape=tableRow;horizontal=0;startSize=0;swimlaneHead=0;swimlaneBody=0;fillColor=none;collapsible=0;dropTarget=0;points=[[0,0.5],[1,0.5]];portConstraint=eastwest;top=0;left=0;right=0;bottom=0;" parent="F8cBAUzVvNkROAD9gVgR-84" vertex="1">
          <mxGeometry y="90" width="180" height="30" as="geometry" />
        </mxCell>
        <mxCell id="F8cBAUzVvNkROAD9gVgR-92" value="FK2" style="shape=partialRectangle;connectable=0;fillColor=none;top=0;left=0;bottom=0;right=0;editable=1;overflow=hidden;whiteSpace=wrap;html=1;" parent="F8cBAUzVvNkROAD9gVgR-91" vertex="1">
          <mxGeometry width="36" height="30" as="geometry">
            <mxRectangle width="36" height="30" as="alternateBounds" />
          </mxGeometry>
        </mxCell>
        <mxCell id="F8cBAUzVvNkROAD9gVgR-93" value="UserID" style="shape=partialRectangle;connectable=0;fillColor=none;top=0;left=0;bottom=0;right=0;align=left;spacingLeft=6;overflow=hidden;whiteSpace=wrap;html=1;" parent="F8cBAUzVvNkROAD9gVgR-91" vertex="1">
          <mxGeometry x="36" width="144" height="30" as="geometry">
            <mxRectangle width="144" height="30" as="alternateBounds" />
          </mxGeometry>
        </mxCell>
        <mxCell id="F8cBAUzVvNkROAD9gVgR-94" value="" style="shape=tableRow;horizontal=0;startSize=0;swimlaneHead=0;swimlaneBody=0;fillColor=none;collapsible=0;dropTarget=0;points=[[0,0.5],[1,0.5]];portConstraint=eastwest;top=0;left=0;right=0;bottom=0;" parent="F8cBAUzVvNkROAD9gVgR-84" vertex="1">
          <mxGeometry y="120" width="180" height="30" as="geometry" />
        </mxCell>
        <mxCell id="F8cBAUzVvNkROAD9gVgR-95" value="" style="shape=partialRectangle;connectable=0;fillColor=none;top=0;left=0;bottom=0;right=0;editable=1;overflow=hidden;whiteSpace=wrap;html=1;" parent="F8cBAUzVvNkROAD9gVgR-94" vertex="1">
          <mxGeometry width="36" height="30" as="geometry">
            <mxRectangle width="36" height="30" as="alternateBounds" />
          </mxGeometry>
        </mxCell>
        <mxCell id="F8cBAUzVvNkROAD9gVgR-96" value="ClickTime" style="shape=partialRectangle;connectable=0;fillColor=none;top=0;left=0;bottom=0;right=0;align=left;spacingLeft=6;overflow=hidden;whiteSpace=wrap;html=1;" parent="F8cBAUzVvNkROAD9gVgR-94" vertex="1">
          <mxGeometry x="36" width="144" height="30" as="geometry">
            <mxRectangle width="144" height="30" as="alternateBounds" />
          </mxGeometry>
        </mxCell>
        <mxCell id="F8cBAUzVvNkROAD9gVgR-97" style="shape=tableRow;horizontal=0;startSize=0;swimlaneHead=0;swimlaneBody=0;fillColor=none;collapsible=0;dropTarget=0;points=[[0,0.5],[1,0.5]];portConstraint=eastwest;top=0;left=0;right=0;bottom=0;" parent="F8cBAUzVvNkROAD9gVgR-84" vertex="1">
          <mxGeometry y="150" width="180" height="30" as="geometry" />
        </mxCell>
        <mxCell id="F8cBAUzVvNkROAD9gVgR-98" style="shape=partialRectangle;connectable=0;fillColor=none;top=0;left=0;bottom=0;right=0;editable=1;overflow=hidden;whiteSpace=wrap;html=1;" parent="F8cBAUzVvNkROAD9gVgR-97" vertex="1">
          <mxGeometry width="36" height="30" as="geometry">
            <mxRectangle width="36" height="30" as="alternateBounds" />
          </mxGeometry>
        </mxCell>
        <mxCell id="F8cBAUzVvNkROAD9gVgR-99" value="IPAddress" style="shape=partialRectangle;connectable=0;fillColor=none;top=0;left=0;bottom=0;right=0;align=left;spacingLeft=6;overflow=hidden;whiteSpace=wrap;html=1;" parent="F8cBAUzVvNkROAD9gVgR-97" vertex="1">
          <mxGeometry x="36" width="144" height="30" as="geometry">
            <mxRectangle width="144" height="30" as="alternateBounds" />
          </mxGeometry>
        </mxCell>
        <mxCell id="F8cBAUzVvNkROAD9gVgR-100" style="edgeStyle=orthogonalEdgeStyle;rounded=0;orthogonalLoop=1;jettySize=auto;html=1;exitX=0;exitY=0.5;exitDx=0;exitDy=0;entryX=1;entryY=0.5;entryDx=0;entryDy=0;" parent="1" source="F8cBAUzVvNkROAD9gVgR-88" target="F8cBAUzVvNkROAD9gVgR-22" edge="1">
          <mxGeometry relative="1" as="geometry" />
        </mxCell>
        <mxCell id="F8cBAUzVvNkROAD9gVgR-101" value="外码" style="edgeLabel;html=1;align=center;verticalAlign=middle;resizable=0;points=[];" parent="F8cBAUzVvNkROAD9gVgR-100" vertex="1" connectable="0">
          <mxGeometry x="0.0123" y="1" relative="1" as="geometry">
            <mxPoint as="offset" />
          </mxGeometry>
        </mxCell>
        <mxCell id="F8cBAUzVvNkROAD9gVgR-102" style="edgeStyle=orthogonalEdgeStyle;rounded=0;orthogonalLoop=1;jettySize=auto;html=1;exitX=0;exitY=0.5;exitDx=0;exitDy=0;" parent="1" source="F8cBAUzVvNkROAD9gVgR-91" target="F8cBAUzVvNkROAD9gVgR-103" edge="1">
          <mxGeometry relative="1" as="geometry">
            <mxPoint x="350" y="195" as="targetPoint" />
          </mxGeometry>
        </mxCell>
        <mxCell id="F8cBAUzVvNkROAD9gVgR-104" value="外码" style="edgeLabel;html=1;align=center;verticalAlign=middle;resizable=0;points=[];" parent="F8cBAUzVvNkROAD9gVgR-102" vertex="1" connectable="0">
          <mxGeometry x="-0.0908" relative="1" as="geometry">
            <mxPoint as="offset" />
          </mxGeometry>
        </mxCell>
        <mxCell id="F8cBAUzVvNkROAD9gVgR-103" value="用户表" style="whiteSpace=wrap;html=1;align=center;" parent="1" vertex="1">
          <mxGeometry x="280" y="182.5" width="50" height="25" as="geometry" />
        </mxCell>
        <mxCell id="F8cBAUzVvNkROAD9gVgR-105" value="&lt;b&gt;&lt;font style=&quot;font-size: 36px;&quot;&gt;广告&lt;/font&gt;&lt;/b&gt;" style="text;html=1;align=center;verticalAlign=middle;resizable=0;points=[];autosize=1;strokeColor=none;fillColor=none;" parent="1" vertex="1">
          <mxGeometry x="170" y="30" width="100" height="60" as="geometry" />
        </mxCell>
        <mxCell id="F8cBAUzVvNkROAD9gVgR-107" value="&lt;font style=&quot;font-size: 18px;&quot;&gt;3.管理员增删改广告&lt;/font&gt;" style="whiteSpace=wrap;html=1;" parent="1" vertex="1">
          <mxGeometry x="45" y="690" width="170" height="30" as="geometry" />
        </mxCell>
        <mxCell id="F8cBAUzVvNkROAD9gVgR-108" value="" style="endArrow=none;html=1;rounded=0;" parent="1" edge="1">
          <mxGeometry relative="1" as="geometry">
            <mxPoint y="320" as="sourcePoint" />
            <mxPoint x="830" y="320" as="targetPoint" />
          </mxGeometry>
        </mxCell>
        <mxCell id="F8cBAUzVvNkROAD9gVgR-109" value="1" style="resizable=0;html=1;whiteSpace=wrap;align=right;verticalAlign=bottom;" parent="F8cBAUzVvNkROAD9gVgR-108" connectable="0" vertex="1">
          <mxGeometry x="1" relative="1" as="geometry" />
        </mxCell>
        <mxCell id="F8cBAUzVvNkROAD9gVgR-110" value="流程：" style="text;html=1;align=center;verticalAlign=middle;resizable=0;points=[];autosize=1;strokeColor=none;fillColor=none;" parent="1" vertex="1">
          <mxGeometry x="40" y="730" width="60" height="30" as="geometry" />
        </mxCell>
        <mxCell id="F8cBAUzVvNkROAD9gVgR-130" style="edgeStyle=orthogonalEdgeStyle;rounded=0;orthogonalLoop=1;jettySize=auto;html=1;exitX=1;exitY=0.5;exitDx=0;exitDy=0;entryX=0;entryY=0.5;entryDx=0;entryDy=0;" parent="1" source="F8cBAUzVvNkROAD9gVgR-111" target="F8cBAUzVvNkROAD9gVgR-112" edge="1">
          <mxGeometry relative="1" as="geometry" />
        </mxCell>
        <mxCell id="F8cBAUzVvNkROAD9gVgR-111" value="Start" style="rounded=0;whiteSpace=wrap;html=1;" parent="1" vertex="1">
          <mxGeometry x="95" y="795" width="50" height="20" as="geometry" />
        </mxCell>
        <mxCell id="F8cBAUzVvNkROAD9gVgR-131" style="edgeStyle=orthogonalEdgeStyle;rounded=0;orthogonalLoop=1;jettySize=auto;html=1;exitX=1;exitY=0.5;exitDx=0;exitDy=0;entryX=0;entryY=0.5;entryDx=0;entryDy=0;" parent="1" source="F8cBAUzVvNkROAD9gVgR-112" target="F8cBAUzVvNkROAD9gVgR-113" edge="1">
          <mxGeometry relative="1" as="geometry" />
        </mxCell>
        <mxCell id="F8cBAUzVvNkROAD9gVgR-112" value="前台输入表单：&lt;br&gt;包括广告类型、URL以及广告的起止日期" style="rounded=0;whiteSpace=wrap;html=1;" parent="1" vertex="1">
          <mxGeometry x="165" y="780" width="110" height="50" as="geometry" />
        </mxCell>
        <mxCell id="F8cBAUzVvNkROAD9gVgR-132" style="edgeStyle=orthogonalEdgeStyle;rounded=0;orthogonalLoop=1;jettySize=auto;html=1;exitX=1;exitY=0.5;exitDx=0;exitDy=0;" parent="1" source="F8cBAUzVvNkROAD9gVgR-113" target="F8cBAUzVvNkROAD9gVgR-114" edge="1">
          <mxGeometry relative="1" as="geometry" />
        </mxCell>
        <mxCell id="F8cBAUzVvNkROAD9gVgR-113" value="点击按钮提交" style="whiteSpace=wrap;html=1;" parent="1" vertex="1">
          <mxGeometry x="295" y="790" width="80" height="30" as="geometry" />
        </mxCell>
        <mxCell id="F8cBAUzVvNkROAD9gVgR-133" style="edgeStyle=orthogonalEdgeStyle;rounded=0;orthogonalLoop=1;jettySize=auto;html=1;exitX=1;exitY=0.5;exitDx=0;exitDy=0;entryX=0;entryY=0.5;entryDx=0;entryDy=0;" parent="1" source="F8cBAUzVvNkROAD9gVgR-114" target="F8cBAUzVvNkROAD9gVgR-116" edge="1">
          <mxGeometry relative="1" as="geometry" />
        </mxCell>
        <mxCell id="F8cBAUzVvNkROAD9gVgR-114" value="后台insert一条新的广告信息，其中广告的ID由系统指定" style="whiteSpace=wrap;html=1;" parent="1" vertex="1">
          <mxGeometry x="405" y="782.5" width="120" height="45" as="geometry" />
        </mxCell>
        <mxCell id="F8cBAUzVvNkROAD9gVgR-134" style="edgeStyle=orthogonalEdgeStyle;rounded=0;orthogonalLoop=1;jettySize=auto;html=1;exitX=1;exitY=0.5;exitDx=0;exitDy=0;" parent="1" source="F8cBAUzVvNkROAD9gVgR-116" target="F8cBAUzVvNkROAD9gVgR-117" edge="1">
          <mxGeometry relative="1" as="geometry" />
        </mxCell>
        <mxCell id="F8cBAUzVvNkROAD9gVgR-116" value="后台反馈增加是否成功的消息" style="whiteSpace=wrap;html=1;" parent="1" vertex="1">
          <mxGeometry x="555" y="787.5" width="98.97" height="35" as="geometry" />
        </mxCell>
        <mxCell id="F8cBAUzVvNkROAD9gVgR-118" style="edgeStyle=orthogonalEdgeStyle;rounded=0;orthogonalLoop=1;jettySize=auto;html=1;exitX=1;exitY=0.25;exitDx=0;exitDy=0;entryX=0;entryY=0.5;entryDx=0;entryDy=0;" parent="1" source="F8cBAUzVvNkROAD9gVgR-117" target="F8cBAUzVvNkROAD9gVgR-119" edge="1">
          <mxGeometry relative="1" as="geometry">
            <mxPoint x="795" y="770" as="targetPoint" />
          </mxGeometry>
        </mxCell>
        <mxCell id="F8cBAUzVvNkROAD9gVgR-121" value="Y" style="edgeLabel;html=1;align=center;verticalAlign=middle;resizable=0;points=[];" parent="F8cBAUzVvNkROAD9gVgR-118" vertex="1" connectable="0">
          <mxGeometry x="0.0549" relative="1" as="geometry">
            <mxPoint as="offset" />
          </mxGeometry>
        </mxCell>
        <mxCell id="F8cBAUzVvNkROAD9gVgR-123" style="edgeStyle=orthogonalEdgeStyle;rounded=0;orthogonalLoop=1;jettySize=auto;html=1;exitX=1;exitY=0.75;exitDx=0;exitDy=0;entryX=0;entryY=0.5;entryDx=0;entryDy=0;" parent="1" source="F8cBAUzVvNkROAD9gVgR-117" target="F8cBAUzVvNkROAD9gVgR-122" edge="1">
          <mxGeometry relative="1" as="geometry" />
        </mxCell>
        <mxCell id="F8cBAUzVvNkROAD9gVgR-124" value="N" style="edgeLabel;html=1;align=center;verticalAlign=middle;resizable=0;points=[];" parent="F8cBAUzVvNkROAD9gVgR-123" vertex="1" connectable="0">
          <mxGeometry x="0.0632" y="-1" relative="1" as="geometry">
            <mxPoint as="offset" />
          </mxGeometry>
        </mxCell>
        <mxCell id="F8cBAUzVvNkROAD9gVgR-117" value="前台显示反馈" style="whiteSpace=wrap;html=1;" parent="1" vertex="1">
          <mxGeometry x="675" y="797.5" width="80" height="15" as="geometry" />
        </mxCell>
        <mxCell id="F8cBAUzVvNkROAD9gVgR-126" style="edgeStyle=orthogonalEdgeStyle;rounded=0;orthogonalLoop=1;jettySize=auto;html=1;exitX=1;exitY=0.5;exitDx=0;exitDy=0;entryX=0;entryY=0.5;entryDx=0;entryDy=0;" parent="1" source="F8cBAUzVvNkROAD9gVgR-119" target="F8cBAUzVvNkROAD9gVgR-125" edge="1">
          <mxGeometry relative="1" as="geometry">
            <Array as="points">
              <mxPoint x="935" y="777" />
              <mxPoint x="935" y="805" />
            </Array>
          </mxGeometry>
        </mxCell>
        <mxCell id="F8cBAUzVvNkROAD9gVgR-119" value="显示一个绿色的小对勾" style="whiteSpace=wrap;html=1;" parent="1" vertex="1">
          <mxGeometry x="795" y="766.5" width="130" height="21" as="geometry" />
        </mxCell>
        <mxCell id="F8cBAUzVvNkROAD9gVgR-127" style="edgeStyle=orthogonalEdgeStyle;rounded=0;orthogonalLoop=1;jettySize=auto;html=1;exitX=1;exitY=0.5;exitDx=0;exitDy=0;entryX=0;entryY=0.5;entryDx=0;entryDy=0;" parent="1" source="F8cBAUzVvNkROAD9gVgR-122" target="F8cBAUzVvNkROAD9gVgR-125" edge="1">
          <mxGeometry relative="1" as="geometry" />
        </mxCell>
        <mxCell id="F8cBAUzVvNkROAD9gVgR-122" value="显示红色的小叉" style="whiteSpace=wrap;html=1;" parent="1" vertex="1">
          <mxGeometry x="795" y="827.5" width="120" height="20" as="geometry" />
        </mxCell>
        <mxCell id="F8cBAUzVvNkROAD9gVgR-129" value="" style="edgeStyle=orthogonalEdgeStyle;rounded=0;orthogonalLoop=1;jettySize=auto;html=1;" parent="1" source="F8cBAUzVvNkROAD9gVgR-125" target="F8cBAUzVvNkROAD9gVgR-128" edge="1">
          <mxGeometry relative="1" as="geometry" />
        </mxCell>
        <mxCell id="F8cBAUzVvNkROAD9gVgR-125" value="清空前台的表单" style="whiteSpace=wrap;html=1;" parent="1" vertex="1">
          <mxGeometry x="955" y="792.5" width="90" height="25" as="geometry" />
        </mxCell>
        <mxCell id="F8cBAUzVvNkROAD9gVgR-128" value="End" style="whiteSpace=wrap;html=1;" parent="1" vertex="1">
          <mxGeometry x="1065" y="797.5" width="35" height="15" as="geometry" />
        </mxCell>
        <mxCell id="F8cBAUzVvNkROAD9gVgR-136" value="增：" style="text;html=1;align=center;verticalAlign=middle;resizable=0;points=[];autosize=1;strokeColor=none;fillColor=none;" parent="1" vertex="1">
          <mxGeometry x="40" y="788" width="50" height="30" as="geometry" />
        </mxCell>
        <mxCell id="F8cBAUzVvNkROAD9gVgR-137" value="删：" style="text;html=1;align=center;verticalAlign=middle;resizable=0;points=[];autosize=1;strokeColor=none;fillColor=none;" parent="1" vertex="1">
          <mxGeometry x="40" y="858" width="50" height="30" as="geometry" />
        </mxCell>
        <mxCell id="F8cBAUzVvNkROAD9gVgR-140" value="" style="edgeStyle=orthogonalEdgeStyle;rounded=0;orthogonalLoop=1;jettySize=auto;html=1;" parent="1" source="F8cBAUzVvNkROAD9gVgR-138" target="F8cBAUzVvNkROAD9gVgR-139" edge="1">
          <mxGeometry relative="1" as="geometry" />
        </mxCell>
        <mxCell id="F8cBAUzVvNkROAD9gVgR-138" value="Start" style="rounded=0;whiteSpace=wrap;html=1;" parent="1" vertex="1">
          <mxGeometry x="95" y="868" width="50" height="20" as="geometry" />
        </mxCell>
        <mxCell id="u2orxv1Wu-BZlO4ID_fW-12" value="" style="edgeStyle=orthogonalEdgeStyle;rounded=0;orthogonalLoop=1;jettySize=auto;html=1;" parent="1" source="F8cBAUzVvNkROAD9gVgR-139" target="u2orxv1Wu-BZlO4ID_fW-11" edge="1">
          <mxGeometry relative="1" as="geometry" />
        </mxCell>
        <mxCell id="F8cBAUzVvNkROAD9gVgR-139" value="在控制界面的每一条广告后有修改/删除的按钮" style="whiteSpace=wrap;html=1;rounded=0;" parent="1" vertex="1">
          <mxGeometry x="170" y="868" width="100" height="42" as="geometry" />
        </mxCell>
        <mxCell id="u2orxv1Wu-BZlO4ID_fW-1" value="&lt;font style=&quot;font-size: 18px;&quot;&gt;1.管理员控制界面呈现广告条目&lt;/font&gt;" style="whiteSpace=wrap;html=1;" parent="1" vertex="1">
          <mxGeometry x="45" y="330" width="255" height="30" as="geometry" />
        </mxCell>
        <mxCell id="u2orxv1Wu-BZlO4ID_fW-2" style="edgeStyle=orthogonalEdgeStyle;rounded=0;orthogonalLoop=1;jettySize=auto;html=1;exitX=1;exitY=0.5;exitDx=0;exitDy=0;entryX=0;entryY=0.5;entryDx=0;entryDy=0;" parent="1" source="u2orxv1Wu-BZlO4ID_fW-3" target="u2orxv1Wu-BZlO4ID_fW-5" edge="1">
          <mxGeometry relative="1" as="geometry" />
        </mxCell>
        <mxCell id="u2orxv1Wu-BZlO4ID_fW-3" value="Start" style="rounded=0;whiteSpace=wrap;html=1;" parent="1" vertex="1">
          <mxGeometry x="80" y="405" width="50" height="20" as="geometry" />
        </mxCell>
        <mxCell id="u2orxv1Wu-BZlO4ID_fW-4" style="edgeStyle=orthogonalEdgeStyle;rounded=0;orthogonalLoop=1;jettySize=auto;html=1;exitX=1;exitY=0.5;exitDx=0;exitDy=0;entryX=0;entryY=0.5;entryDx=0;entryDy=0;" parent="1" source="u2orxv1Wu-BZlO4ID_fW-5" target="u2orxv1Wu-BZlO4ID_fW-7" edge="1">
          <mxGeometry relative="1" as="geometry" />
        </mxCell>
        <mxCell id="u2orxv1Wu-BZlO4ID_fW-5" value="前台界面访问数据库，获取全部广告的列表" style="rounded=0;whiteSpace=wrap;html=1;" parent="1" vertex="1">
          <mxGeometry x="150" y="390" width="110" height="50" as="geometry" />
        </mxCell>
        <mxCell id="u2orxv1Wu-BZlO4ID_fW-7" value="按照表格的形式呈现广告" style="whiteSpace=wrap;html=1;" parent="1" vertex="1">
          <mxGeometry x="280" y="400" width="80" height="30" as="geometry" />
        </mxCell>
        <mxCell id="u2orxv1Wu-BZlO4ID_fW-14" value="" style="edgeStyle=orthogonalEdgeStyle;rounded=0;orthogonalLoop=1;jettySize=auto;html=1;" parent="1" source="u2orxv1Wu-BZlO4ID_fW-11" target="u2orxv1Wu-BZlO4ID_fW-13" edge="1">
          <mxGeometry relative="1" as="geometry" />
        </mxCell>
        <mxCell id="u2orxv1Wu-BZlO4ID_fW-15" value="Y" style="edgeLabel;html=1;align=center;verticalAlign=middle;resizable=0;points=[];" parent="u2orxv1Wu-BZlO4ID_fW-14" vertex="1" connectable="0">
          <mxGeometry x="-0.0381" relative="1" as="geometry">
            <mxPoint as="offset" />
          </mxGeometry>
        </mxCell>
        <mxCell id="u2orxv1Wu-BZlO4ID_fW-16" style="edgeStyle=orthogonalEdgeStyle;rounded=0;orthogonalLoop=1;jettySize=auto;html=1;exitX=1;exitY=0.75;exitDx=0;exitDy=0;entryX=0;entryY=0.75;entryDx=0;entryDy=0;" parent="1" source="u2orxv1Wu-BZlO4ID_fW-11" target="u2orxv1Wu-BZlO4ID_fW-17" edge="1">
          <mxGeometry relative="1" as="geometry">
            <mxPoint x="635" y="902" as="targetPoint" />
            <mxPoint x="465" y="960" as="sourcePoint" />
            <Array as="points">
              <mxPoint x="435" y="902" />
              <mxPoint x="435" y="930" />
              <mxPoint x="615" y="930" />
              <mxPoint x="615" y="894" />
            </Array>
          </mxGeometry>
        </mxCell>
        <mxCell id="-B68lIBKBf1nEpoMevQf-18" value="N" style="edgeLabel;html=1;align=center;verticalAlign=middle;resizable=0;points=[];" parent="u2orxv1Wu-BZlO4ID_fW-16" vertex="1" connectable="0">
          <mxGeometry x="-0.0346" y="-1" relative="1" as="geometry">
            <mxPoint as="offset" />
          </mxGeometry>
        </mxCell>
        <mxCell id="u2orxv1Wu-BZlO4ID_fW-11" value="点击删除后页面弹出提示，可以选择确定和取消" style="whiteSpace=wrap;html=1;rounded=0;" parent="1" vertex="1">
          <mxGeometry x="295" y="863.5" width="120" height="51" as="geometry" />
        </mxCell>
        <mxCell id="u2orxv1Wu-BZlO4ID_fW-18" style="edgeStyle=orthogonalEdgeStyle;rounded=0;orthogonalLoop=1;jettySize=auto;html=1;exitX=1;exitY=0.25;exitDx=0;exitDy=0;entryX=0;entryY=0.25;entryDx=0;entryDy=0;" parent="1" source="u2orxv1Wu-BZlO4ID_fW-13" target="u2orxv1Wu-BZlO4ID_fW-17" edge="1">
          <mxGeometry relative="1" as="geometry" />
        </mxCell>
        <mxCell id="u2orxv1Wu-BZlO4ID_fW-13" value="前台发送消息，后台根据AdID删除某条广告" style="whiteSpace=wrap;html=1;rounded=0;" parent="1" vertex="1">
          <mxGeometry x="465" y="863.5" width="120" height="51" as="geometry" />
        </mxCell>
        <mxCell id="u2orxv1Wu-BZlO4ID_fW-17" value="End" style="whiteSpace=wrap;html=1;" parent="1" vertex="1">
          <mxGeometry x="645" y="877.25" width="50" height="22.75" as="geometry" />
        </mxCell>
        <mxCell id="-B68lIBKBf1nEpoMevQf-1" value="改：" style="text;html=1;align=center;verticalAlign=middle;resizable=0;points=[];autosize=1;strokeColor=none;fillColor=none;" parent="1" vertex="1">
          <mxGeometry x="40" y="928" width="50" height="30" as="geometry" />
        </mxCell>
        <mxCell id="-B68lIBKBf1nEpoMevQf-2" value="" style="edgeStyle=orthogonalEdgeStyle;rounded=0;orthogonalLoop=1;jettySize=auto;html=1;" parent="1" source="-B68lIBKBf1nEpoMevQf-3" target="-B68lIBKBf1nEpoMevQf-5" edge="1">
          <mxGeometry relative="1" as="geometry" />
        </mxCell>
        <mxCell id="-B68lIBKBf1nEpoMevQf-3" value="Start" style="rounded=0;whiteSpace=wrap;html=1;" parent="1" vertex="1">
          <mxGeometry x="95" y="954.5" width="50" height="20" as="geometry" />
        </mxCell>
        <mxCell id="-B68lIBKBf1nEpoMevQf-4" value="" style="edgeStyle=orthogonalEdgeStyle;rounded=0;orthogonalLoop=1;jettySize=auto;html=1;entryX=0;entryY=0.5;entryDx=0;entryDy=0;" parent="1" source="-B68lIBKBf1nEpoMevQf-5" target="-B68lIBKBf1nEpoMevQf-14" edge="1">
          <mxGeometry relative="1" as="geometry" />
        </mxCell>
        <mxCell id="-B68lIBKBf1nEpoMevQf-5" value="在控制界面的每一条广告后有修改/删除的按钮" style="whiteSpace=wrap;html=1;rounded=0;" parent="1" vertex="1">
          <mxGeometry x="170" y="954.5" width="100" height="42" as="geometry" />
        </mxCell>
        <mxCell id="-B68lIBKBf1nEpoMevQf-6" value="" style="edgeStyle=orthogonalEdgeStyle;rounded=0;orthogonalLoop=1;jettySize=auto;html=1;" parent="1" source="-B68lIBKBf1nEpoMevQf-10" target="-B68lIBKBf1nEpoMevQf-12" edge="1">
          <mxGeometry relative="1" as="geometry" />
        </mxCell>
        <mxCell id="-B68lIBKBf1nEpoMevQf-7" value="Y" style="edgeLabel;html=1;align=center;verticalAlign=middle;resizable=0;points=[];" parent="-B68lIBKBf1nEpoMevQf-6" vertex="1" connectable="0">
          <mxGeometry x="-0.0381" relative="1" as="geometry">
            <mxPoint as="offset" />
          </mxGeometry>
        </mxCell>
        <mxCell id="-B68lIBKBf1nEpoMevQf-8" style="edgeStyle=orthogonalEdgeStyle;rounded=0;orthogonalLoop=1;jettySize=auto;html=1;exitX=1;exitY=0.75;exitDx=0;exitDy=0;entryX=0;entryY=0.75;entryDx=0;entryDy=0;" parent="1" source="-B68lIBKBf1nEpoMevQf-10" target="-B68lIBKBf1nEpoMevQf-13" edge="1">
          <mxGeometry relative="1" as="geometry">
            <mxPoint x="800" y="988.75" as="targetPoint" />
            <mxPoint x="630" y="1046.75" as="sourcePoint" />
            <Array as="points">
              <mxPoint x="600" y="988.75" />
              <mxPoint x="600" y="1016.75" />
              <mxPoint x="780" y="1016.75" />
              <mxPoint x="780" y="980.75" />
            </Array>
          </mxGeometry>
        </mxCell>
        <mxCell id="-B68lIBKBf1nEpoMevQf-9" value="N" style="edgeLabel;html=1;align=center;verticalAlign=middle;resizable=0;points=[];" parent="-B68lIBKBf1nEpoMevQf-8" vertex="1" connectable="0">
          <mxGeometry x="-0.1111" y="-4" relative="1" as="geometry">
            <mxPoint x="19" y="-1" as="offset" />
          </mxGeometry>
        </mxCell>
        <mxCell id="-B68lIBKBf1nEpoMevQf-10" value="点击确定，弹出提示，确定是否修改" style="whiteSpace=wrap;html=1;rounded=0;" parent="1" vertex="1">
          <mxGeometry x="445" y="945.5" width="120" height="51" as="geometry" />
        </mxCell>
        <mxCell id="-B68lIBKBf1nEpoMevQf-11" style="edgeStyle=orthogonalEdgeStyle;rounded=0;orthogonalLoop=1;jettySize=auto;html=1;exitX=1;exitY=0.25;exitDx=0;exitDy=0;entryX=0;entryY=0.25;entryDx=0;entryDy=0;" parent="1" source="-B68lIBKBf1nEpoMevQf-12" target="-B68lIBKBf1nEpoMevQf-13" edge="1">
          <mxGeometry relative="1" as="geometry" />
        </mxCell>
        <mxCell id="-B68lIBKBf1nEpoMevQf-12" value="前台发送消息，后台根据AdID修改该广告" style="whiteSpace=wrap;html=1;rounded=0;" parent="1" vertex="1">
          <mxGeometry x="635" y="945.5" width="120" height="51" as="geometry" />
        </mxCell>
        <mxCell id="-B68lIBKBf1nEpoMevQf-13" value="End" style="whiteSpace=wrap;html=1;" parent="1" vertex="1">
          <mxGeometry x="815" y="959.25" width="50" height="22.75" as="geometry" />
        </mxCell>
        <mxCell id="-B68lIBKBf1nEpoMevQf-16" style="edgeStyle=orthogonalEdgeStyle;rounded=0;orthogonalLoop=1;jettySize=auto;html=1;exitX=1;exitY=0.5;exitDx=0;exitDy=0;entryX=0;entryY=0.5;entryDx=0;entryDy=0;" parent="1" source="-B68lIBKBf1nEpoMevQf-14" target="-B68lIBKBf1nEpoMevQf-10" edge="1">
          <mxGeometry relative="1" as="geometry" />
        </mxCell>
        <mxCell id="-B68lIBKBf1nEpoMevQf-14" value="点击修改后页面，原显示内容变成表单，可以进行修改" style="whiteSpace=wrap;html=1;" parent="1" vertex="1">
          <mxGeometry x="315" y="945.75" width="110" height="54.25" as="geometry" />
        </mxCell>
        <mxCell id="-B68lIBKBf1nEpoMevQf-19" value="&lt;font style=&quot;font-size: 18px;&quot;&gt;5.用户界面呈现广告&lt;/font&gt;" style="whiteSpace=wrap;html=1;" parent="1" vertex="1">
          <mxGeometry x="45" y="1220" width="175" height="30" as="geometry" />
        </mxCell>
        <mxCell id="-B68lIBKBf1nEpoMevQf-20" value="&lt;span style=&quot;color: rgb(0, 0, 0); font-family: Helvetica; font-size: 12px; font-style: normal; font-variant-ligatures: normal; font-variant-caps: normal; font-weight: 400; letter-spacing: normal; orphans: 2; text-align: center; text-indent: 0px; text-transform: none; widows: 2; word-spacing: 0px; -webkit-text-stroke-width: 0px; white-space: nowrap; background-color: rgb(251, 251, 251); text-decoration-thickness: initial; text-decoration-style: initial; text-decoration-color: initial; display: inline !important; float: none;&quot;&gt;流程：&lt;/span&gt;" style="text;whiteSpace=wrap;html=1;" parent="1" vertex="1">
          <mxGeometry x="45" y="1270" width="40" height="20" as="geometry" />
        </mxCell>
        <mxCell id="GoL-0JiAsPzDFBbjx5me-9" style="edgeStyle=orthogonalEdgeStyle;rounded=0;orthogonalLoop=1;jettySize=auto;html=1;exitX=1;exitY=0.5;exitDx=0;exitDy=0;entryX=0;entryY=0.5;entryDx=0;entryDy=0;" edge="1" parent="1" source="-B68lIBKBf1nEpoMevQf-21" target="GoL-0JiAsPzDFBbjx5me-1">
          <mxGeometry relative="1" as="geometry" />
        </mxCell>
        <mxCell id="-B68lIBKBf1nEpoMevQf-21" value="Start" style="whiteSpace=wrap;html=1;" parent="1" vertex="1">
          <mxGeometry x="65" y="1300" width="45" height="20" as="geometry" />
        </mxCell>
        <mxCell id="-B68lIBKBf1nEpoMevQf-25" value="" style="edgeStyle=orthogonalEdgeStyle;rounded=0;orthogonalLoop=1;jettySize=auto;html=1;" parent="1" source="-B68lIBKBf1nEpoMevQf-22" target="-B68lIBKBf1nEpoMevQf-24" edge="1">
          <mxGeometry relative="1" as="geometry" />
        </mxCell>
        <mxCell id="-B68lIBKBf1nEpoMevQf-22" value="在遗失物品的div之间随机显示一条广告的div（内放图片）" style="whiteSpace=wrap;html=1;" parent="1" vertex="1">
          <mxGeometry x="340.15" y="1287.5" width="120" height="50" as="geometry" />
        </mxCell>
        <mxCell id="-B68lIBKBf1nEpoMevQf-27" value="" style="edgeStyle=orthogonalEdgeStyle;rounded=0;orthogonalLoop=1;jettySize=auto;html=1;" parent="1" source="-B68lIBKBf1nEpoMevQf-24" target="-B68lIBKBf1nEpoMevQf-26" edge="1">
          <mxGeometry relative="1" as="geometry" />
        </mxCell>
        <mxCell id="-B68lIBKBf1nEpoMevQf-31" value="" style="edgeStyle=orthogonalEdgeStyle;rounded=0;orthogonalLoop=1;jettySize=auto;html=1;" parent="1" source="-B68lIBKBf1nEpoMevQf-24" target="-B68lIBKBf1nEpoMevQf-30" edge="1">
          <mxGeometry relative="1" as="geometry" />
        </mxCell>
        <mxCell id="-B68lIBKBf1nEpoMevQf-24" value="广告div可以被点击，点击则跳转到相应的AdURL，鼠标长时间放置在广告上显示AdContent" style="whiteSpace=wrap;html=1;" parent="1" vertex="1">
          <mxGeometry x="500.15" y="1270" width="120" height="85" as="geometry" />
        </mxCell>
        <mxCell id="-B68lIBKBf1nEpoMevQf-29" value="" style="edgeStyle=orthogonalEdgeStyle;rounded=0;orthogonalLoop=1;jettySize=auto;html=1;" parent="1" source="-B68lIBKBf1nEpoMevQf-26" target="-B68lIBKBf1nEpoMevQf-28" edge="1">
          <mxGeometry relative="1" as="geometry" />
        </mxCell>
        <mxCell id="-B68lIBKBf1nEpoMevQf-26" value="广告应该安排关闭按钮，点击后被关闭" style="whiteSpace=wrap;html=1;" parent="1" vertex="1">
          <mxGeometry x="650.15" y="1292.5" width="120" height="40" as="geometry" />
        </mxCell>
        <mxCell id="-B68lIBKBf1nEpoMevQf-28" value="End" style="whiteSpace=wrap;html=1;" parent="1" vertex="1">
          <mxGeometry x="815" y="1297.5" width="50" height="30" as="geometry" />
        </mxCell>
        <mxCell id="-B68lIBKBf1nEpoMevQf-33" value="" style="edgeStyle=orthogonalEdgeStyle;rounded=0;orthogonalLoop=1;jettySize=auto;html=1;" parent="1" source="-B68lIBKBf1nEpoMevQf-30" target="-B68lIBKBf1nEpoMevQf-32" edge="1">
          <mxGeometry relative="1" as="geometry" />
        </mxCell>
        <mxCell id="-B68lIBKBf1nEpoMevQf-30" value="广告被点击后将向后台发送消息，" style="whiteSpace=wrap;html=1;" parent="1" vertex="1">
          <mxGeometry x="500.15" y="1372.5" width="120" height="60" as="geometry" />
        </mxCell>
        <mxCell id="-B68lIBKBf1nEpoMevQf-34" style="edgeStyle=orthogonalEdgeStyle;rounded=0;orthogonalLoop=1;jettySize=auto;html=1;exitX=1;exitY=0.5;exitDx=0;exitDy=0;entryX=0.5;entryY=1;entryDx=0;entryDy=0;" parent="1" source="-B68lIBKBf1nEpoMevQf-32" target="-B68lIBKBf1nEpoMevQf-28" edge="1">
          <mxGeometry relative="1" as="geometry" />
        </mxCell>
        <mxCell id="-B68lIBKBf1nEpoMevQf-32" value="&lt;strong style=&quot;text-wrap: nowrap; box-sizing: border-box; color: rgb(51, 51, 51); font-family: &amp;quot;Open Sans&amp;quot;, &amp;quot;Clear Sans&amp;quot;, &amp;quot;Helvetica Neue&amp;quot;, Helvetica, Arial, &amp;quot;Segoe UI Emoji&amp;quot;, sans-serif; orphans: 4; text-align: left; background-color: rgb(255, 255, 255);&quot;&gt;增加ClickStatistics的一条信息&lt;/strong&gt;" style="whiteSpace=wrap;html=1;" parent="1" vertex="1">
          <mxGeometry x="650.15" y="1387.5" width="170" height="30" as="geometry" />
        </mxCell>
        <mxCell id="-B68lIBKBf1nEpoMevQf-36" value="&lt;font style=&quot;font-size: 18px;&quot;&gt;2.管理界面广告信息统计&lt;/font&gt;" style="whiteSpace=wrap;html=1;" parent="1" vertex="1">
          <mxGeometry x="47.5" y="490" width="215" height="30" as="geometry" />
        </mxCell>
        <mxCell id="-B68lIBKBf1nEpoMevQf-44" value="" style="edgeStyle=orthogonalEdgeStyle;rounded=0;orthogonalLoop=1;jettySize=auto;html=1;" parent="1" source="-B68lIBKBf1nEpoMevQf-42" target="-B68lIBKBf1nEpoMevQf-43" edge="1">
          <mxGeometry relative="1" as="geometry" />
        </mxCell>
        <mxCell id="-B68lIBKBf1nEpoMevQf-42" value="根据ClickStatistics表统计信息" style="rounded=0;whiteSpace=wrap;html=1;" parent="1" vertex="1">
          <mxGeometry x="112.5" y="570" width="120" height="40" as="geometry" />
        </mxCell>
        <mxCell id="-B68lIBKBf1nEpoMevQf-43" value="广告总数、点击量、每条广告各自的点击量等，以图表的形式呈现。" style="whiteSpace=wrap;html=1;rounded=0;" parent="1" vertex="1">
          <mxGeometry x="300" y="560" width="120" height="60" as="geometry" />
        </mxCell>
        <mxCell id="-B68lIBKBf1nEpoMevQf-45" value="&lt;font style=&quot;font-size: 18px;&quot;&gt;4.管理员查找广告&lt;/font&gt;" style="whiteSpace=wrap;html=1;" parent="1" vertex="1">
          <mxGeometry x="45" y="1030" width="170" height="30" as="geometry" />
        </mxCell>
        <mxCell id="-B68lIBKBf1nEpoMevQf-46" value="流程：" style="text;html=1;align=center;verticalAlign=middle;resizable=0;points=[];autosize=1;strokeColor=none;fillColor=none;" parent="1" vertex="1">
          <mxGeometry x="47.5" y="1080" width="60" height="30" as="geometry" />
        </mxCell>
        <mxCell id="-B68lIBKBf1nEpoMevQf-47" value="查：" style="text;html=1;align=center;verticalAlign=middle;resizable=0;points=[];autosize=1;strokeColor=none;fillColor=none;" parent="1" vertex="1">
          <mxGeometry x="50" y="1130" width="50" height="30" as="geometry" />
        </mxCell>
        <mxCell id="-B68lIBKBf1nEpoMevQf-50" value="" style="edgeStyle=orthogonalEdgeStyle;rounded=0;orthogonalLoop=1;jettySize=auto;html=1;" parent="1" source="-B68lIBKBf1nEpoMevQf-48" target="-B68lIBKBf1nEpoMevQf-49" edge="1">
          <mxGeometry relative="1" as="geometry" />
        </mxCell>
        <mxCell id="-B68lIBKBf1nEpoMevQf-48" value="Start" style="rounded=0;whiteSpace=wrap;html=1;" parent="1" vertex="1">
          <mxGeometry x="95" y="1135" width="50" height="20" as="geometry" />
        </mxCell>
        <mxCell id="-B68lIBKBf1nEpoMevQf-52" value="" style="edgeStyle=orthogonalEdgeStyle;rounded=0;orthogonalLoop=1;jettySize=auto;html=1;" parent="1" source="-B68lIBKBf1nEpoMevQf-49" target="-B68lIBKBf1nEpoMevQf-51" edge="1">
          <mxGeometry relative="1" as="geometry" />
        </mxCell>
        <mxCell id="-B68lIBKBf1nEpoMevQf-49" value="在搜索框中输入广告的内容AdContent" style="whiteSpace=wrap;html=1;rounded=0;" parent="1" vertex="1">
          <mxGeometry x="190" y="1127.5" width="120" height="35" as="geometry" />
        </mxCell>
        <mxCell id="-B68lIBKBf1nEpoMevQf-54" value="" style="edgeStyle=orthogonalEdgeStyle;rounded=0;orthogonalLoop=1;jettySize=auto;html=1;" parent="1" source="-B68lIBKBf1nEpoMevQf-51" target="-B68lIBKBf1nEpoMevQf-53" edge="1">
          <mxGeometry relative="1" as="geometry" />
        </mxCell>
        <mxCell id="-B68lIBKBf1nEpoMevQf-51" value="点击搜索按钮" style="whiteSpace=wrap;html=1;rounded=0;" parent="1" vertex="1">
          <mxGeometry x="334" y="1132.5" width="80" height="25" as="geometry" />
        </mxCell>
        <mxCell id="-B68lIBKBf1nEpoMevQf-57" value="" style="edgeStyle=orthogonalEdgeStyle;rounded=0;orthogonalLoop=1;jettySize=auto;html=1;" parent="1" source="-B68lIBKBf1nEpoMevQf-53" target="-B68lIBKBf1nEpoMevQf-56" edge="1">
          <mxGeometry relative="1" as="geometry">
            <Array as="points">
              <mxPoint x="505" y="1098" />
            </Array>
          </mxGeometry>
        </mxCell>
        <mxCell id="-B68lIBKBf1nEpoMevQf-58" value="找到" style="edgeLabel;html=1;align=center;verticalAlign=middle;resizable=0;points=[];" parent="-B68lIBKBf1nEpoMevQf-57" vertex="1" connectable="0">
          <mxGeometry x="0.0232" y="2" relative="1" as="geometry">
            <mxPoint as="offset" />
          </mxGeometry>
        </mxCell>
        <mxCell id="-B68lIBKBf1nEpoMevQf-66" value="" style="edgeStyle=orthogonalEdgeStyle;rounded=0;orthogonalLoop=1;jettySize=auto;html=1;entryX=0;entryY=0.5;entryDx=0;entryDy=0;exitX=1;exitY=0.5;exitDx=0;exitDy=0;" parent="1" source="-B68lIBKBf1nEpoMevQf-53" target="-B68lIBKBf1nEpoMevQf-65" edge="1">
          <mxGeometry relative="1" as="geometry">
            <mxPoint x="580" y="1145" as="sourcePoint" />
          </mxGeometry>
        </mxCell>
        <mxCell id="-B68lIBKBf1nEpoMevQf-68" value="未找到" style="edgeLabel;html=1;align=center;verticalAlign=middle;resizable=0;points=[];" parent="-B68lIBKBf1nEpoMevQf-66" vertex="1" connectable="0">
          <mxGeometry x="-0.0667" y="-3" relative="1" as="geometry">
            <mxPoint as="offset" />
          </mxGeometry>
        </mxCell>
        <mxCell id="-B68lIBKBf1nEpoMevQf-53" value="发送消息到后台，后台在广告信息表的Adcontent中进行模式匹配" style="whiteSpace=wrap;html=1;rounded=0;" parent="1" vertex="1">
          <mxGeometry x="445" y="1115" width="120" height="60" as="geometry" />
        </mxCell>
        <mxCell id="-B68lIBKBf1nEpoMevQf-60" value="" style="edgeStyle=orthogonalEdgeStyle;rounded=0;orthogonalLoop=1;jettySize=auto;html=1;" parent="1" source="-B68lIBKBf1nEpoMevQf-56" target="-B68lIBKBf1nEpoMevQf-59" edge="1">
          <mxGeometry relative="1" as="geometry" />
        </mxCell>
        <mxCell id="-B68lIBKBf1nEpoMevQf-56" value="返回相应的广告AdID" style="whiteSpace=wrap;html=1;rounded=0;" parent="1" vertex="1">
          <mxGeometry x="620" y="1085" width="120" height="25" as="geometry" />
        </mxCell>
        <mxCell id="-B68lIBKBf1nEpoMevQf-62" value="" style="edgeStyle=orthogonalEdgeStyle;rounded=0;orthogonalLoop=1;jettySize=auto;html=1;" parent="1" source="-B68lIBKBf1nEpoMevQf-59" target="-B68lIBKBf1nEpoMevQf-61" edge="1">
          <mxGeometry relative="1" as="geometry" />
        </mxCell>
        <mxCell id="-B68lIBKBf1nEpoMevQf-59" value="根据相应的AdID返回前台广告需要显示的信息" style="whiteSpace=wrap;html=1;rounded=0;" parent="1" vertex="1">
          <mxGeometry x="770" y="1067.5" width="120" height="60" as="geometry" />
        </mxCell>
        <mxCell id="-B68lIBKBf1nEpoMevQf-73" style="edgeStyle=orthogonalEdgeStyle;rounded=0;orthogonalLoop=1;jettySize=auto;html=1;exitX=0.5;exitY=1;exitDx=0;exitDy=0;entryX=0.5;entryY=0;entryDx=0;entryDy=0;" parent="1" source="-B68lIBKBf1nEpoMevQf-61" target="-B68lIBKBf1nEpoMevQf-71" edge="1">
          <mxGeometry relative="1" as="geometry" />
        </mxCell>
        <mxCell id="-B68lIBKBf1nEpoMevQf-61" value="前台显示广告条目的信息" style="whiteSpace=wrap;html=1;rounded=0;" parent="1" vertex="1">
          <mxGeometry x="920" y="1082.5" width="140" height="30" as="geometry" />
        </mxCell>
        <mxCell id="-B68lIBKBf1nEpoMevQf-70" value="" style="edgeStyle=orthogonalEdgeStyle;rounded=0;orthogonalLoop=1;jettySize=auto;html=1;" parent="1" source="-B68lIBKBf1nEpoMevQf-65" target="-B68lIBKBf1nEpoMevQf-69" edge="1">
          <mxGeometry relative="1" as="geometry" />
        </mxCell>
        <mxCell id="-B68lIBKBf1nEpoMevQf-65" value="后台返回查找失败的消息" style="whiteSpace=wrap;html=1;rounded=0;" parent="1" vertex="1">
          <mxGeometry x="630" y="1175" width="120" height="30" as="geometry" />
        </mxCell>
        <mxCell id="-B68lIBKBf1nEpoMevQf-72" style="edgeStyle=orthogonalEdgeStyle;rounded=0;orthogonalLoop=1;jettySize=auto;html=1;exitX=1;exitY=0.5;exitDx=0;exitDy=0;entryX=0;entryY=0.5;entryDx=0;entryDy=0;" parent="1" source="-B68lIBKBf1nEpoMevQf-69" target="-B68lIBKBf1nEpoMevQf-71" edge="1">
          <mxGeometry relative="1" as="geometry" />
        </mxCell>
        <mxCell id="-B68lIBKBf1nEpoMevQf-69" value="前台显示查找失败的显示" style="whiteSpace=wrap;html=1;rounded=0;" parent="1" vertex="1">
          <mxGeometry x="770" y="1175" width="120" height="30" as="geometry" />
        </mxCell>
        <mxCell id="-B68lIBKBf1nEpoMevQf-71" value="End" style="whiteSpace=wrap;html=1;" parent="1" vertex="1">
          <mxGeometry x="965" y="1175" width="50" height="20" as="geometry" />
        </mxCell>
        <mxCell id="-B68lIBKBf1nEpoMevQf-74" value="" style="endArrow=none;html=1;rounded=0;" parent="1" edge="1">
          <mxGeometry relative="1" as="geometry">
            <mxPoint y="1480" as="sourcePoint" />
            <mxPoint x="830" y="1480" as="targetPoint" />
          </mxGeometry>
        </mxCell>
        <mxCell id="-B68lIBKBf1nEpoMevQf-75" value="1" style="resizable=0;html=1;whiteSpace=wrap;align=right;verticalAlign=bottom;" parent="-B68lIBKBf1nEpoMevQf-74" connectable="0" vertex="1">
          <mxGeometry x="1" relative="1" as="geometry">
            <mxPoint x="-114" as="offset" />
          </mxGeometry>
        </mxCell>
        <mxCell id="-B68lIBKBf1nEpoMevQf-76" value="&lt;font style=&quot;font-size: 18px;&quot;&gt;前台需要的东西&lt;/font&gt;" style="whiteSpace=wrap;html=1;" parent="1" vertex="1">
          <mxGeometry x="35" y="1510" width="140" height="30" as="geometry" />
        </mxCell>
        <mxCell id="-B68lIBKBf1nEpoMevQf-77" value="AdInformation.html&lt;div&gt;显示所有广告列表&lt;/div&gt;" style="whiteSpace=wrap;html=1;" parent="1" vertex="1">
          <mxGeometry x="80" y="1600" width="130" height="40" as="geometry" />
        </mxCell>
        <mxCell id="-B68lIBKBf1nEpoMevQf-79" value="AdStatistics.html&lt;div&gt;显示广告统计信息&lt;/div&gt;" style="whiteSpace=wrap;html=1;" parent="1" vertex="1">
          <mxGeometry x="80" y="2055" width="130" height="40" as="geometry" />
        </mxCell>
        <mxCell id="-B68lIBKBf1nEpoMevQf-80" value="&lt;div&gt;&lt;br&gt;&lt;/div&gt;&lt;div&gt;&lt;br&gt;&lt;/div&gt;&lt;div&gt;&lt;br&gt;&lt;/div&gt;&lt;div&gt;&lt;br&gt;&lt;/div&gt;&lt;div&gt;&lt;br&gt;&lt;/div&gt;&lt;div&gt;&lt;br&gt;&lt;/div&gt;&lt;div&gt;&lt;br&gt;&lt;/div&gt;&lt;div&gt;&lt;br&gt;&lt;/div&gt;&lt;div&gt;&lt;br&gt;&lt;/div&gt;&amp;nbsp; &amp;nbsp; &amp;nbsp; &amp;nbsp; &amp;nbsp; &amp;nbsp; &amp;nbsp; &amp;nbsp; &amp;nbsp; &amp;nbsp; &amp;nbsp; &amp;nbsp; &amp;nbsp; &amp;nbsp; &amp;nbsp; &amp;nbsp; &amp;nbsp; &amp;nbsp; &amp;nbsp;上面这些是根据后台显示的，如果没有则显示相应没有的信息" style="rounded=0;whiteSpace=wrap;html=1;" parent="1" vertex="1">
          <mxGeometry x="280" y="1540" width="550" height="360" as="geometry" />
        </mxCell>
        <mxCell id="-B68lIBKBf1nEpoMevQf-81" value="广告" style="rounded=0;whiteSpace=wrap;html=1;" parent="1" vertex="1">
          <mxGeometry x="297.5" y="1660" width="115" height="30" as="geometry" />
        </mxCell>
        <mxCell id="-B68lIBKBf1nEpoMevQf-82" value="" style="endArrow=none;html=1;rounded=0;" parent="1" edge="1">
          <mxGeometry width="50" height="50" relative="1" as="geometry">
            <mxPoint x="440" y="1530" as="sourcePoint" />
            <mxPoint x="440" y="1930" as="targetPoint" />
          </mxGeometry>
        </mxCell>
        <mxCell id="-B68lIBKBf1nEpoMevQf-83" value="广告列表" style="rounded=0;whiteSpace=wrap;html=1;" parent="1" vertex="1">
          <mxGeometry x="332.5" y="1690" width="75" height="30" as="geometry" />
        </mxCell>
        <mxCell id="-B68lIBKBf1nEpoMevQf-84" value="广告统计" style="rounded=0;whiteSpace=wrap;html=1;" parent="1" vertex="1">
          <mxGeometry x="336.5" y="1720" width="75" height="30" as="geometry" />
        </mxCell>
        <mxCell id="-B68lIBKBf1nEpoMevQf-85" value="一条广告信息" style="rounded=0;whiteSpace=wrap;html=1;" parent="1" vertex="1">
          <mxGeometry x="460" y="1645" width="335" height="30" as="geometry" />
        </mxCell>
        <mxCell id="-B68lIBKBf1nEpoMevQf-86" value="一条广告信息" style="rounded=0;whiteSpace=wrap;html=1;" parent="1" vertex="1">
          <mxGeometry x="460" y="1675" width="335" height="30" as="geometry" />
        </mxCell>
        <mxCell id="-B68lIBKBf1nEpoMevQf-87" value="一条广告信息" style="rounded=0;whiteSpace=wrap;html=1;" parent="1" vertex="1">
          <mxGeometry x="460" y="1705" width="335" height="30" as="geometry" />
        </mxCell>
        <mxCell id="-B68lIBKBf1nEpoMevQf-88" value="一条广告信息" style="rounded=0;whiteSpace=wrap;html=1;" parent="1" vertex="1">
          <mxGeometry x="460" y="1735" width="335" height="30" as="geometry" />
        </mxCell>
        <mxCell id="-B68lIBKBf1nEpoMevQf-89" value="搜索框..." style="rounded=0;whiteSpace=wrap;html=1;" parent="1" vertex="1">
          <mxGeometry x="460" y="1610" width="90" height="30" as="geometry" />
        </mxCell>
        <mxCell id="-B68lIBKBf1nEpoMevQf-90" value="搜索按钮" style="rounded=0;whiteSpace=wrap;html=1;" parent="1" vertex="1">
          <mxGeometry x="555" y="1610" width="60" height="30" as="geometry" />
        </mxCell>
        <mxCell id="-B68lIBKBf1nEpoMevQf-91" value="" style="rounded=0;whiteSpace=wrap;html=1;" parent="1" vertex="1">
          <mxGeometry x="280" y="1930" width="550" height="360" as="geometry" />
        </mxCell>
        <mxCell id="-B68lIBKBf1nEpoMevQf-92" value="广告" style="rounded=0;whiteSpace=wrap;html=1;" parent="1" vertex="1">
          <mxGeometry x="297.5" y="2050" width="115" height="30" as="geometry" />
        </mxCell>
        <mxCell id="-B68lIBKBf1nEpoMevQf-93" value="" style="endArrow=none;html=1;rounded=0;" parent="1" edge="1">
          <mxGeometry width="50" height="50" relative="1" as="geometry">
            <mxPoint x="440" y="1920" as="sourcePoint" />
            <mxPoint x="440" y="2320" as="targetPoint" />
          </mxGeometry>
        </mxCell>
        <mxCell id="-B68lIBKBf1nEpoMevQf-94" value="广告列表" style="rounded=0;whiteSpace=wrap;html=1;" parent="1" vertex="1">
          <mxGeometry x="340" y="2080" width="75" height="30" as="geometry" />
        </mxCell>
        <mxCell id="-B68lIBKBf1nEpoMevQf-95" value="广告统计" style="rounded=0;whiteSpace=wrap;html=1;" parent="1" vertex="1">
          <mxGeometry x="336.5" y="2110" width="75" height="30" as="geometry" />
        </mxCell>
        <mxCell id="-B68lIBKBf1nEpoMevQf-99" value="图表" style="rounded=0;whiteSpace=wrap;html=1;" parent="1" vertex="1">
          <mxGeometry x="460" y="2050" width="335" height="135" as="geometry" />
        </mxCell>
        <mxCell id="-B68lIBKBf1nEpoMevQf-103" value="&lt;div&gt;&lt;br&gt;&lt;/div&gt;&lt;div&gt;&lt;br&gt;&lt;/div&gt;&lt;div&gt;&lt;br&gt;&lt;/div&gt;图表" style="rounded=0;whiteSpace=wrap;html=1;" parent="1" vertex="1">
          <mxGeometry x="460" y="2200" width="335" height="90" as="geometry" />
        </mxCell>
        <mxCell id="-B68lIBKBf1nEpoMevQf-104" value="&amp;lt;div&amp;gt;广告显示&amp;lt;/div&amp;gt;&lt;div&gt;用户界面显示广告信息&lt;/div&gt;" style="whiteSpace=wrap;html=1;" parent="1" vertex="1">
          <mxGeometry x="80" y="2490" width="130" height="50" as="geometry" />
        </mxCell>
        <mxCell id="-B68lIBKBf1nEpoMevQf-105" value="整个网页&lt;div&gt;&lt;br&gt;&lt;/div&gt;&lt;div&gt;&lt;br&gt;&lt;/div&gt;&lt;div&gt;&lt;br&gt;&lt;/div&gt;&lt;div&gt;&lt;br&gt;&lt;/div&gt;&lt;div&gt;&lt;br&gt;&lt;/div&gt;&lt;div&gt;&lt;br&gt;&lt;/div&gt;&lt;div&gt;&lt;br&gt;&lt;/div&gt;&lt;div&gt;&lt;br&gt;&lt;/div&gt;&lt;div&gt;&lt;br&gt;&lt;/div&gt;&lt;div&gt;&lt;br&gt;&lt;/div&gt;&lt;div&gt;&lt;br&gt;&lt;/div&gt;&lt;div&gt;&lt;br&gt;&lt;/div&gt;&lt;div&gt;&lt;br&gt;&lt;/div&gt;&lt;div&gt;&lt;br&gt;&lt;/div&gt;&lt;div&gt;&lt;br&gt;&lt;/div&gt;&lt;div&gt;&lt;br&gt;&lt;/div&gt;&lt;div&gt;&lt;br&gt;&lt;/div&gt;&lt;div&gt;&lt;br&gt;&lt;/div&gt;&lt;div&gt;&lt;br&gt;&lt;/div&gt;&lt;div&gt;&lt;br&gt;&lt;/div&gt;&lt;div&gt;&lt;br&gt;&lt;/div&gt;&lt;div&gt;&lt;br&gt;&lt;/div&gt;&lt;div&gt;&lt;br&gt;&lt;/div&gt;&lt;div&gt;&lt;br&gt;&lt;/div&gt;&lt;div&gt;&lt;br&gt;&lt;/div&gt;&lt;div&gt;&lt;br&gt;&lt;/div&gt;" style="rounded=0;whiteSpace=wrap;html=1;align=left;" parent="1" vertex="1">
          <mxGeometry x="280" y="2440" width="530" height="400" as="geometry" />
        </mxCell>
        <mxCell id="-B68lIBKBf1nEpoMevQf-106" value="上一条遗失物品信息" style="rounded=0;whiteSpace=wrap;html=1;" parent="1" vertex="1">
          <mxGeometry x="412.5" y="2490" width="276" height="100" as="geometry" />
        </mxCell>
        <mxCell id="-B68lIBKBf1nEpoMevQf-107" value="下一条遗失物品信息" style="rounded=0;whiteSpace=wrap;html=1;" parent="1" vertex="1">
          <mxGeometry x="412.5" y="2630" width="276" height="100" as="geometry" />
        </mxCell>
        <mxCell id="-B68lIBKBf1nEpoMevQf-108" value="一条随机的广告" style="rounded=0;whiteSpace=wrap;html=1;" parent="1" vertex="1">
          <mxGeometry x="412.5" y="2590" width="276" height="40" as="geometry" />
        </mxCell>
        <mxCell id="-B68lIBKBf1nEpoMevQf-109" value="下下一条遗失物品信息" style="rounded=0;whiteSpace=wrap;html=1;" parent="1" vertex="1">
          <mxGeometry x="412.5" y="2730" width="276" height="100" as="geometry" />
        </mxCell>
        <mxCell id="GoL-0JiAsPzDFBbjx5me-3" value="" style="edgeStyle=orthogonalEdgeStyle;rounded=0;orthogonalLoop=1;jettySize=auto;html=1;entryX=0;entryY=0.5;entryDx=0;entryDy=0;" edge="1" parent="1" source="GoL-0JiAsPzDFBbjx5me-1" target="-B68lIBKBf1nEpoMevQf-22">
          <mxGeometry relative="1" as="geometry">
            <mxPoint x="222.5" y="1370" as="targetPoint" />
          </mxGeometry>
        </mxCell>
        <mxCell id="GoL-0JiAsPzDFBbjx5me-7" value="N" style="edgeLabel;html=1;align=center;verticalAlign=middle;resizable=0;points=[];" vertex="1" connectable="0" parent="GoL-0JiAsPzDFBbjx5me-3">
          <mxGeometry x="-0.0575" y="2" relative="1" as="geometry">
            <mxPoint as="offset" />
          </mxGeometry>
        </mxCell>
        <mxCell id="GoL-0JiAsPzDFBbjx5me-6" value="" style="edgeStyle=orthogonalEdgeStyle;rounded=0;orthogonalLoop=1;jettySize=auto;html=1;" edge="1" parent="1" source="GoL-0JiAsPzDFBbjx5me-1" target="GoL-0JiAsPzDFBbjx5me-5">
          <mxGeometry relative="1" as="geometry" />
        </mxCell>
        <mxCell id="GoL-0JiAsPzDFBbjx5me-8" value="Y" style="edgeLabel;html=1;align=center;verticalAlign=middle;resizable=0;points=[];" vertex="1" connectable="0" parent="GoL-0JiAsPzDFBbjx5me-6">
          <mxGeometry x="-0.0353" y="4" relative="1" as="geometry">
            <mxPoint as="offset" />
          </mxGeometry>
        </mxCell>
        <mxCell id="GoL-0JiAsPzDFBbjx5me-1" value="查询是否为VIP用户：&lt;div&gt;理论上来说应该可以缓存到web前端&lt;/div&gt;" style="whiteSpace=wrap;html=1;" vertex="1" parent="1">
          <mxGeometry x="187.5" y="1282.5" width="120" height="60" as="geometry" />
        </mxCell>
        <mxCell id="GoL-0JiAsPzDFBbjx5me-5" value="VIP用户不显示任何广告" style="whiteSpace=wrap;html=1;" vertex="1" parent="1">
          <mxGeometry x="180" y="1387.5" width="135" height="30" as="geometry" />
        </mxCell>
      </root>
    </mxGraphModel>
  </diagram>
</mxfile>
